<svg xmlns="http://www.w3.org/2000/svg" xmlns:xlink="http://www.w3.org/1999/xlink" viewBox="0 0 217.13 464.07"><defs><style>.cls-1{fill:#e6e7e8;}.cls-2{fill:url(#linear-gradient);}.cls-3{fill:url(#radial-gradient);}</style><linearGradient id="linear-gradient" x1="109.01" y1="278.37" x2="109.01" y2="225.69" gradientUnits="userSpaceOnUse"><stop offset="0.02" stop-color="#fffbcc"/><stop offset="0.03" stop-color="#fffbca"/><stop offset="0.15" stop-color="#fff5aa"/><stop offset="0.27" stop-color="#fef092"/><stop offset="0.39" stop-color="#feee84"/><stop offset="0.48" stop-color="#feed7f"/></linearGradient><radialGradient id="radial-gradient" cx="108.57" cy="344.36" r="106.85" gradientUnits="userSpaceOnUse"><stop offset="0.17" stop-color="#fffbcc"/><stop offset="0.47" stop-color="#fffbcc"/><stop offset="0.77" stop-color="#feed7f"/></radialGradient></defs><title>light3on_1</title><g id="Layer_2" data-name="Layer 2"><g id="_1" data-name="1"><rect x="104.07" width="9" height="135.4"/><path d="M199.79,321.18c-30.54-34.36-51-87.4-53.32-93.47V154.36a3.73,3.73,0,0,0-3.73-3.73h-6c-2.23-9.06-13.78-15.77-28.16-15.77s-25.93,6.71-28.16,15.77H77.59l-2.51-.47a3.73,3.73,0,0,0-4.42,3.66v73.88c-2.28,6.07-22.78,59.11-53.32,93.47C-1.52,342.4-5.5,379.44,7.89,409.25c9.19,20.47,34.5,54.82,100.68,54.82s91.48-34.34,100.68-54.82C222.63,379.44,218.65,342.4,199.79,321.18Z"/><polygon class="cls-1" points="139.01 224.27 139.01 224.66 78.13 224.66 78.13 212.84 139.01 224.27"/><polygon class="cls-1" points="139.01 206.63 139.01 216.68 78.13 205.25 78.13 195.2 139.01 206.63"/><polygon class="cls-1" points="139.01 188.45 139.01 198.5 78.13 187.08 78.13 177.03 139.01 188.45"/><polygon class="cls-1" points="139.01 169.75 139.01 179.8 78.13 168.38 78.13 158.32 139.01 169.75"/><polygon class="cls-1" points="139.01 158.09 139.01 162.16 117.31 158.09 139.01 158.09"/><path class="cls-1" d="M128.66,150.63H88.49c2.57-4.37,10.06-8.31,20.08-8.31S126.09,146.26,128.66,150.63Z"/><path class="cls-2" d="M104.06,232.11h10c-1.58,56.11,13.43,77.74,21.27,85.1-20.43,13.85-42.93,5-52.68-.15C108.45,296.93,105.58,247.09,104.06,232.11Z"/><path class="cls-3" d="M194.22,326.13c17,19.13,20.47,52.81,8.23,80.07-8.46,18.83-31.9,50.41-93.88,50.41S23.15,425,14.7,406.2c-12.25-27.26-8.79-60.94,8.22-80.07,29.85-33.58,49.68-82.61,54.06-94H96.55C97.92,245.76,101.38,299,73.86,314a3.72,3.72,0,0,0-.33,6.34c.25.18,17.2,11.63,37.82,11.63a49.57,49.57,0,0,0,32.54-11.83,3.75,3.75,0,0,0-.7-6.19c-.24-.13-23.67-13.32-21.68-81.8h18.66C144.54,243.52,164.38,292.55,194.22,326.13Z"/></g></g></svg>