<svg xmlns="http://www.w3.org/2000/svg" viewBox="0 0 156.82 633.24"><defs><style>.cls-1{fill:#fff;}</style></defs><title>light1</title><g id="Layer_2" data-name="Layer 2"><g id="_1" data-name="1"><path d="M155.79,589a18.69,18.69,0,0,0-11.51-23.72l-17.11-5.93v-14l4.91,1.7a18.47,18.47,0,0,0,6.06,1,18.64,18.64,0,0,0,6.14-36.25l-17.11-5.93V459.67H83.86v31.27L73,487.16V459.67H29.66v12.49l-4.91-1.7a18.44,18.44,0,0,0-6.06-1,18.64,18.64,0,0,0-6.14,36.25l17.12,5.93v14l-4.91-1.7a18.44,18.44,0,0,0-6.06-1,18.62,18.62,0,0,0-9.77,34.5,18.61,18.61,0,0,0,3.63,33.44l119.54,41.41a18.47,18.47,0,0,0,6.06,1,18.62,18.62,0,0,0,9.77-34.5A18.54,18.54,0,0,0,155.79,589ZM83.86,544.37,73,540.59v-14l10.9,3.78Z"/><rect x="73.91" width="9" height="261.92"/><path d="M73,460.63h10.9v0h43.31v0h17.62a3.74,3.74,0,0,0,3.48-5.08l-14.8-106a3.73,3.73,0,0,0-3.69-3.21H116.31V276.64a3.73,3.73,0,0,0-3.73-3.73h-6c-2.23-9.06-13.78-15.77-28.16-15.77s-25.93,6.71-28.16,15.77H47.44l-2.51-.47a3.73,3.73,0,0,0-4.42,3.66v70.21H27a3.73,3.73,0,0,0-3.69,3.21L8.44,456.39a3.73,3.73,0,0,0,3.69,4.24H29.66v0H73Zm35.9-180.26v4.07l-21.7-4.07ZM78.41,264.61c10,0,17.51,3.94,20.08,8.31H58.33C60.9,268.54,68.39,264.61,78.41,264.61ZM48,280.6,108.85,292v10L48,290.66Zm0,18.71,60.89,11.42v10.05L48,309.36Zm0,18.17,60.89,11.43V339L48,327.53Zm0,17.64,60.89,11.43v.39H48ZM16.42,453.18l13.87-99.4h12a3.63,3.63,0,0,0,1.94.62h68.35a3.63,3.63,0,0,0,1.94-.62h12l13.87,99.4Z"/><path class="cls-1" d="M148.23,524.61a11.12,11.12,0,0,1,.52,8.54L8.08,484.41a11.21,11.21,0,0,1,14.23-6.91l119.54,41.42A11.1,11.1,0,0,1,148.23,524.61Z"/><path class="cls-1" d="M148.23,578a11.12,11.12,0,0,1,.52,8.54L8.08,537.84a11.22,11.22,0,0,1,10.6-7.51,10.94,10.94,0,0,1,3.63.61l119.54,41.41A11.1,11.1,0,0,1,148.23,578Z"/><path class="cls-1" d="M148.23,609.73a11.12,11.12,0,0,1,.52,8.54L8.08,569.53a11.21,11.21,0,0,1,14.23-6.91L141.85,604A11.1,11.1,0,0,1,148.23,609.73Z"/><path class="cls-1" d="M8.08,484.41l140.67,48.74a11.38,11.38,0,0,1-14.23,6.9L15,498.64a11.22,11.22,0,0,1-6.9-14.23Z"/><path class="cls-1" d="M8.08,537.84l140.67,48.74a11.39,11.39,0,0,1-14.23,6.91L15,552.07a11.22,11.22,0,0,1-6.9-14.23Z"/><path class="cls-1" d="M8.08,569.53l140.67,48.74a11.38,11.38,0,0,1-14.23,6.9L15,583.76a11.22,11.22,0,0,1-6.9-14.23Z"/><polygon class="cls-1" points="119.72 542.82 119.72 556.79 91.32 546.95 91.32 532.98 119.72 542.82"/><polygon class="cls-1" points="119.72 459.63 119.72 503.36 91.32 493.52 91.32 459.63 119.72 459.63"/><polygon class="cls-1" points="65.51 524.04 65.51 538.01 37.11 528.17 37.11 514.2 65.51 524.04"/><polygon class="cls-1" points="65.51 459.63 65.51 484.58 37.11 474.74 37.11 459.63 65.51 459.63"/></g></g></svg>