<svg xmlns="http://www.w3.org/2000/svg" viewBox="0 0 140.1 847.71"><defs><style>.cls-1{fill:#fff;}</style></defs><title>light4</title><g id="Layer_2" data-name="Layer 2"><g id="_1" data-name="1"><rect x="65.55" width="9" height="464.07"/><path d="M125.06,555.81a3.73,3.73,0,0,0-3.69-3.21H107.91V482.92a3.73,3.73,0,0,0-3.73-3.73h-6c-2.23-9.06-13.78-15.77-28.16-15.77s-25.93,6.71-28.16,15.77H39l-2.51-.47a3.73,3.73,0,0,0-4.42,3.66v70.21H18.64a3.73,3.73,0,0,0-3.69,3.21L0,662.66a3.73,3.73,0,0,0,3.69,4.24H13.3V813A34.71,34.71,0,0,0,48,847.71h3.32a34.65,34.65,0,0,0,28.9-15.57,24.27,24.27,0,0,0,46.93-8.74V666.91h9.26a3.74,3.74,0,0,0,3.48-5.08ZM8,659.45,21.88,560h12a3.63,3.63,0,0,0,1.94.62h68.35a3.63,3.63,0,0,0,1.94-.62h12L132,659.45ZM39.56,541.39l60.89,11.43v.39H39.56Zm50.53-62.2H49.92c2.57-4.37,10.06-8.31,20.08-8.31S87.52,474.82,90.09,479.19Zm10.36,47.87L39.56,515.63v-10L100.45,517Zm-60.89-3.3,60.89,11.42v10.05L39.56,533.81Zm0-36.88,60.89,11.43v10L39.56,496.93Zm60.89,3.84-21.7-4.07h21.7Z"/><path class="cls-1" d="M119.66,666.91V823.4a16.86,16.86,0,0,1-33.71,0V666.91Z"/><path class="cls-1" d="M78.5,666.91V813a27.24,27.24,0,0,1-27.22,27.21H48A27.24,27.24,0,0,1,20.76,813V666.91H45.9V802.35a3.73,3.73,0,1,0,7.46,0V666.91Z"/></g></g></svg>