<svg xmlns="http://www.w3.org/2000/svg" xmlns:xlink="http://www.w3.org/1999/xlink" viewBox="0 0 140.1 847.71"><defs><style>.cls-1{fill:#e6e7e8;}.cls-2{fill:url(#linear-gradient);}.cls-3{fill:url(#linear-gradient-2);}</style><linearGradient id="linear-gradient" x1="85.95" y1="753.58" x2="119.66" y2="753.58" gradientUnits="userSpaceOnUse"><stop offset="0.17" stop-color="#fffbcc"/><stop offset="0.47" stop-color="#fffbcc"/><stop offset="0.77" stop-color="#feed7f"/></linearGradient><linearGradient id="linear-gradient-2" x1="20.76" y1="753.58" x2="78.5" y2="753.58" xlink:href="#linear-gradient"/></defs><title>light4on_1</title><g id="Layer_2" data-name="Layer 2"><g id="_1" data-name="1"><rect x="65.55" width="9" height="464.07"/><path d="M125.06,555.81a3.73,3.73,0,0,0-3.69-3.21H107.91V482.92a3.73,3.73,0,0,0-3.73-3.73h-6c-2.23-9.06-13.78-15.77-28.16-15.77s-25.93,6.71-28.16,15.77H39l-2.51-.47a3.73,3.73,0,0,0-4.42,3.66v70.21H18.64a3.73,3.73,0,0,0-3.69,3.21L0,662.66a3.73,3.73,0,0,0,3.69,4.24H13.3V813A34.71,34.71,0,0,0,48,847.71h3.32a34.65,34.65,0,0,0,28.9-15.57,24.27,24.27,0,0,0,46.93-8.74V666.91h9.26a3.74,3.74,0,0,0,3.48-5.08Z"/><path class="cls-1" d="M118.12,560.05,132,659.45H8l13.86-99.4h12a3.6,3.6,0,0,0,1.93.62h68.35a3.66,3.66,0,0,0,1.94-.62Z"/><polygon class="cls-1" points="100.45 552.82 100.45 553.21 39.56 553.21 39.56 541.39 100.45 552.82"/><polygon class="cls-1" points="100.45 535.18 100.45 545.23 39.56 533.81 39.56 523.76 100.45 535.18"/><polygon class="cls-1" points="100.45 517.01 100.45 527.06 39.56 515.63 39.56 505.59 100.45 517.01"/><polygon class="cls-1" points="100.45 498.3 100.45 508.35 39.56 496.93 39.56 486.88 100.45 498.3"/><polygon class="cls-1" points="100.45 486.65 100.45 490.72 78.75 486.65 100.45 486.65"/><path class="cls-1" d="M90.09,479.19H49.92c2.57-4.37,10.06-8.31,20.09-8.31S87.52,474.82,90.09,479.19Z"/><path class="cls-2" d="M119.66,666.91V823.4a16.86,16.86,0,0,1-33.71,0V666.91Z"/><path class="cls-3" d="M78.5,666.91V813a27.24,27.24,0,0,1-27.22,27.21H48A27.24,27.24,0,0,1,20.76,813V666.91H45.9V802.35a3.73,3.73,0,1,0,7.46,0V666.91Z"/></g></g></svg>