<svg xmlns="http://www.w3.org/2000/svg" viewBox="0 0 129.3 533.36"><defs><style>.cls-1{fill:#fff;}</style></defs><title>Asset 18</title><g id="Layer_2" data-name="Layer 2"><g id="_1" data-name="1"><rect x="60.15" width="9" height="193"/><path d="M102.55,276.23V209.42a3.73,3.73,0,0,0-3.73-3.73h-6c-2.23-9.06-13.78-15.77-28.16-15.77s-25.93,6.71-28.16,15.77H33.7l-2.53-.48a3.73,3.73,0,0,0-4.42,3.66v73.58C-10.68,345.81-6,450.62,23.35,502.53,34.76,522.7,49,533.36,64.65,533.36S94.55,522.7,106,502.53c29.35-51.9,34-156.71-3.41-220.07Zm-37.9-78.85c10,0,17.52,3.94,20.09,8.31H44.56C47.13,201.32,54.62,197.38,64.65,197.38ZM34.2,279.71V267.89l60.89,11.43v.39Zm0-37.58V232.09l60.89,11.43v10Zm0,18.17v-10l60.89,11.42v10.05Zm0-46.93,60.89,11.43v10.05L34.2,223.43Zm60.89,3.84-21.67-4.07H95.09Z"/><path class="cls-1" d="M60.14,287.17h10c-1.58,56.11,13.44,77.74,21.27,85.1-20.42,13.84-42.92,5-52.67-.15C64.53,352,61.65,302.15,60.14,287.17Z"/><path class="cls-1" d="M100,375.16a3.76,3.76,0,0,0-.71-6.19c-.24-.13-23.66-13.32-21.68-81.8H96.67c35.59,61.3,31,161.8,2.8,211.68-7,12.34-18.69,27.06-34.82,27.06s-27.84-14.72-34.82-27C1.62,449-3,348.47,32.62,287.17h20C54,300.82,57.46,354,29.93,369a3.72,3.72,0,0,0-.33,6.34c.25.17,17.21,11.62,37.83,11.62A49.63,49.63,0,0,0,100,375.16Z"/></g></g></svg>