<svg xmlns="http://www.w3.org/2000/svg" xmlns:xlink="http://www.w3.org/1999/xlink" viewBox="0 0 156.75 776.23"><defs><style>.cls-1{fill:#e6e7e8;}.cls-2{fill:url(#linear-gradient);}.cls-3{fill:url(#radial-gradient);}</style><linearGradient id="linear-gradient" x1="78.81" y1="678.4" x2="78.81" y2="625.72" gradientUnits="userSpaceOnUse"><stop offset="0.05" stop-color="#fffbcc"/><stop offset="0.19" stop-color="#fff8bb"/><stop offset="0.46" stop-color="#fef08e"/><stop offset="0.55" stop-color="#feed7f"/></linearGradient><radialGradient id="radial-gradient" cx="78.37" cy="700.46" r="69.62" gradientUnits="userSpaceOnUse"><stop offset="0.17" stop-color="#fffbcc"/><stop offset="0.47" stop-color="#fffbcc"/><stop offset="0.77" stop-color="#feed7f"/></radialGradient></defs><title>light6on_1</title><g id="Layer_2" data-name="Layer 2"><g id="_1" data-name="1"><rect x="73.87" width="9" height="534.91"/><path d="M116.12,629.21a3.5,3.5,0,0,0,.16-.78v-74a3.73,3.73,0,0,0-3.73-3.73h-6c-2.23-9.06-13.78-15.77-28.16-15.77s-25.93,6.71-28.16,15.77H47.4l-2.51-.47a3.73,3.73,0,0,0-4.42,3.66v74.56a3.5,3.5,0,0,0,.16.78,78.37,78.37,0,1,0,75.49,0Z"/><polygon class="cls-1" points="108.82 624.3 108.82 624.7 47.93 624.7 47.93 612.88 108.82 624.3"/><polygon class="cls-1" points="108.82 606.66 108.82 616.71 47.93 605.29 47.93 595.24 108.82 606.66"/><polygon class="cls-1" points="108.82 588.49 108.82 598.54 47.93 587.12 47.93 577.06 108.82 588.49"/><polygon class="cls-1" points="108.82 569.78 108.82 579.84 47.93 568.41 47.93 558.36 108.82 569.78"/><polygon class="cls-1" points="108.82 558.13 108.82 562.2 87.14 558.13 108.82 558.13"/><path class="cls-1" d="M98.46,550.67H58.29c2.57-4.37,10.06-8.31,20.08-8.31S95.89,546.3,98.46,550.67Z"/><path class="cls-2" d="M73.86,632.15h10c-1.58,56.11,13.43,77.74,21.27,85.1-20.43,13.84-42.92,5-52.68-.15C78.25,697,75.38,647.13,73.86,632.15Z"/><path class="cls-3" d="M105,632.15a70.92,70.92,0,1,1-53.17,0H66.35C67.73,645.8,71.18,699,43.66,714a3.72,3.72,0,0,0-.33,6.34c.25.18,17.21,11.63,37.83,11.63a49.55,49.55,0,0,0,32.53-11.83,3.73,3.73,0,0,0,1.3-3.27,3.78,3.78,0,0,0-2-2.92c-.24-.13-23.66-13.32-21.68-81.8Z"/></g></g></svg>