<svg xmlns="http://www.w3.org/2000/svg" xmlns:xlink="http://www.w3.org/1999/xlink" viewBox="0 0 129.3 533.36"><defs><style>.cls-1{fill:#e6e7e8;}.cls-2{fill:url(#linear-gradient);}.cls-3{fill:url(#radial-gradient);}</style><linearGradient id="linear-gradient" x1="65.09" y1="333.42" x2="65.09" y2="280.75" gradientUnits="userSpaceOnUse"><stop offset="0" stop-color="#fffbcc"/><stop offset="0.16" stop-color="#fff7b4"/><stop offset="0.52" stop-color="#feed7f"/></linearGradient><radialGradient id="radial-gradient" cx="64.65" cy="406.54" r="93.64" gradientUnits="userSpaceOnUse"><stop offset="0.17" stop-color="#fffbcc"/><stop offset="0.33" stop-color="#fffbcc"/><stop offset="0.86" stop-color="#feed7f"/></radialGradient></defs><title>light5on_1</title><g id="Layer_2" data-name="Layer 2"><g id="_1" data-name="1"><rect x="60.15" width="9" height="193"/><path d="M102.55,276.23V209.42a3.73,3.73,0,0,0-3.73-3.73h-6c-2.23-9.06-13.78-15.77-28.16-15.77s-25.93,6.71-28.16,15.77H33.7l-2.53-.48a3.73,3.73,0,0,0-4.42,3.66v73.58C-10.68,345.81-6,450.62,23.35,502.53,34.76,522.7,49,533.36,64.65,533.36S94.55,522.7,106,502.53c29.35-51.9,34-156.71-3.41-220.07Z"/><polygon class="cls-1" points="95.09 279.32 95.09 279.71 34.2 279.71 34.2 267.89 95.09 279.32"/><polygon class="cls-1" points="95.09 261.68 95.09 271.73 34.2 260.31 34.2 250.26 95.09 261.68"/><polygon class="cls-1" points="95.09 243.51 95.09 253.56 34.2 242.14 34.2 232.09 95.09 243.51"/><polygon class="cls-1" points="95.09 224.81 95.09 234.86 34.2 223.43 34.2 213.38 95.09 224.81"/><polygon class="cls-1" points="95.09 213.15 95.09 217.22 73.42 213.15 95.09 213.15"/><path class="cls-1" d="M84.73,205.7H44.56c2.57-4.38,10.06-8.32,20.09-8.32S82.17,201.32,84.73,205.7Z"/><path class="cls-2" d="M60.14,287.17h10c-1.58,56.11,13.44,77.74,21.27,85.1-20.42,13.84-42.92,5-52.67-.15C64.53,352,61.65,302.15,60.14,287.17Z"/><path class="cls-3" d="M100,375.16a3.76,3.76,0,0,0-.71-6.19c-.24-.13-23.66-13.32-21.68-81.8H96.67c35.59,61.3,31,161.8,2.8,211.68-7,12.34-18.69,27.06-34.82,27.06s-27.84-14.72-34.82-27C1.62,449-3,348.47,32.62,287.17h20C54,300.82,57.46,354,29.93,369a3.72,3.72,0,0,0-.33,6.34c.25.17,17.21,11.62,37.83,11.62A49.63,49.63,0,0,0,100,375.16Z"/></g></g></svg>