<svg xmlns="http://www.w3.org/2000/svg" viewBox="0 0 217.13 464.07"><defs><style>.cls-1{fill:#fff;}</style></defs><title>light3</title><g id="Layer_2" data-name="Layer 2"><g id="_1" data-name="1"><rect x="104.07" width="9" height="135.4"/><path d="M199.79,321.18c-30.54-34.36-51-87.4-53.32-93.47V154.36a3.73,3.73,0,0,0-3.73-3.73h-6c-2.23-9.06-13.78-15.77-28.16-15.77s-25.93,6.71-28.16,15.77H77.59l-2.51-.47a3.73,3.73,0,0,0-4.42,3.66v73.88c-2.28,6.07-22.78,59.11-53.32,93.47C-1.52,342.4-5.5,379.44,7.89,409.25c9.19,20.47,34.5,54.82,100.68,54.82s91.48-34.34,100.68-54.82C222.63,379.44,218.65,342.4,199.79,321.18ZM128.65,150.63H88.48c2.57-4.37,10.06-8.31,20.08-8.31S126.08,146.26,128.65,150.63Zm-50.53,74V212.84L139,224.27v.39Zm0-19.41V195.2L139,206.63v10.05Zm0-18.17V177L139,188.45V198.5Zm0-28.76L139,169.75v10L78.12,168.38ZM139,162.16l-21.7-4.07H139Z"/><path class="cls-1" d="M104.06,232.11h10c-1.58,56.11,13.43,77.74,21.27,85.1-20.43,13.85-42.93,5-52.68-.15C108.45,296.93,105.58,247.09,104.06,232.11Z"/><path class="cls-1" d="M194.22,326.13c17,19.13,20.47,52.81,8.23,80.07-8.46,18.83-31.9,50.41-93.88,50.41S23.15,425,14.7,406.2c-12.25-27.26-8.79-60.94,8.22-80.07,29.85-33.58,49.68-82.61,54.06-94H96.55C97.92,245.76,101.38,299,73.86,314a3.72,3.72,0,0,0-.33,6.34c.25.18,17.2,11.63,37.82,11.63a49.57,49.57,0,0,0,32.54-11.83,3.75,3.75,0,0,0-.7-6.19c-.24-.13-23.67-13.32-21.68-81.8h18.66C144.54,243.52,164.38,292.55,194.22,326.13Z"/></g></g></svg>