<svg xmlns="http://www.w3.org/2000/svg" viewBox="0 0 156.75 776.23"><defs><style>.cls-1{fill:#fff;}</style></defs><title>light6</title><g id="Layer_2" data-name="Layer 2"><g id="_1" data-name="1"><rect x="73.87" width="9" height="534.91"/><path d="M116.12,629.21a3.5,3.5,0,0,0,.16-.78v-74a3.73,3.73,0,0,0-3.73-3.73h-6c-2.23-9.06-13.78-15.77-28.16-15.77s-25.93,6.71-28.16,15.77H47.4l-2.51-.47a3.73,3.73,0,0,0-4.42,3.66v74.56a3.5,3.5,0,0,0,.16.78,78.37,78.37,0,1,0,75.49,0ZM47.93,624.7V612.88l60.89,11.43v.4Zm30.44-82.33c10,0,17.51,3.94,20.08,8.31H58.29C60.86,546.3,68.35,542.36,78.37,542.36ZM47.93,587.12V577.06l60.89,11.43v10.05Zm0,8.12,60.89,11.43v10L47.93,605.29Zm0-36.88,60.89,11.42v10.05L47.93,568.41Zm60.89,3.84-21.68-4.07h21.68Z"/><path class="cls-1" d="M73.86,632.15h10c-1.58,56.11,13.43,77.74,21.27,85.1-20.43,13.84-42.92,5-52.68-.15C78.25,697,75.38,647.13,73.86,632.15Z"/><path class="cls-1" d="M105,632.15a70.92,70.92,0,1,1-53.17,0H66.35C67.73,645.8,71.18,699,43.66,714a3.72,3.72,0,0,0-.33,6.34c.25.18,17.21,11.63,37.83,11.63a49.55,49.55,0,0,0,32.53-11.83,3.73,3.73,0,0,0,1.3-3.27,3.78,3.78,0,0,0-2-2.92c-.24-.13-23.66-13.32-21.68-81.8Z"/></g></g></svg>