<svg xmlns="http://www.w3.org/2000/svg" xmlns:xlink="http://www.w3.org/1999/xlink" viewBox="0 0 156.82 633.24"><defs><style>.cls-1{fill:#e6e7e8;}.cls-2{fill:url(#radial-gradient);}.cls-3{fill:url(#radial-gradient-2);}.cls-4{fill:url(#radial-gradient-3);}.cls-5{fill:url(#radial-gradient-4);}.cls-6{fill:url(#radial-gradient-5);}.cls-7{fill:url(#radial-gradient-6);}.cls-8{fill:url(#radial-gradient-7);}.cls-9{fill:url(#radial-gradient-8);}.cls-10{fill:url(#radial-gradient-9);}.cls-11{fill:url(#radial-gradient-10);}</style><radialGradient id="radial-gradient" cx="78.72" cy="505.02" r="53.77" gradientUnits="userSpaceOnUse"><stop offset="0.17" stop-color="#fffbcc"/><stop offset="0.47" stop-color="#fffbcc"/><stop offset="0.77" stop-color="#feed7f"/></radialGradient><radialGradient id="radial-gradient-2" cx="78.72" cy="558.45" r="53.77" xlink:href="#radial-gradient"/><radialGradient id="radial-gradient-3" cx="78.72" cy="590.14" r="53.77" xlink:href="#radial-gradient"/><radialGradient id="radial-gradient-4" cx="78.1" cy="512.52" r="53.76" xlink:href="#radial-gradient"/><radialGradient id="radial-gradient-5" cx="78.1" cy="565.96" r="53.76" xlink:href="#radial-gradient"/><radialGradient id="radial-gradient-6" cx="78.1" cy="597.64" r="53.76" xlink:href="#radial-gradient"/><radialGradient id="radial-gradient-7" cx="105.52" cy="544.89" r="13.1" xlink:href="#radial-gradient"/><radialGradient id="radial-gradient-8" cx="105.52" cy="481.5" r="18.44" xlink:href="#radial-gradient"/><radialGradient id="radial-gradient-9" cx="51.31" cy="526.1" r="13.1" xlink:href="#radial-gradient"/><radialGradient id="radial-gradient-10" cx="51.31" cy="472.1" r="13.37" xlink:href="#radial-gradient"/></defs><title>Asset 19</title><g id="Layer_2" data-name="Layer 2"><g id="_1" data-name="1"><path d="M155.79,589a18.69,18.69,0,0,0-11.51-23.72l-17.11-5.93v-14l4.91,1.7a18.47,18.47,0,0,0,6.06,1,18.64,18.64,0,0,0,6.14-36.25l-17.11-5.93V459.67H83.86v31.27L73,487.16V459.67H29.66v12.49l-4.91-1.7a18.44,18.44,0,0,0-6.06-1,18.64,18.64,0,0,0-6.14,36.25l17.12,5.93v14l-4.91-1.7a18.44,18.44,0,0,0-6.06-1,18.62,18.62,0,0,0-9.77,34.5,18.61,18.61,0,0,0,3.63,33.44l119.54,41.41a18.47,18.47,0,0,0,6.06,1,18.62,18.62,0,0,0,9.77-34.5A18.54,18.54,0,0,0,155.79,589ZM83.86,544.37,73,540.59v-14l10.9,3.78Z"/><rect x="73.91" width="9" height="261.92"/><path d="M148.27,455.55a3.81,3.81,0,0,1,.25,1.35,3.73,3.73,0,0,1-3.73,3.73H127.17v0H83.86v0H73v0H29.66v0H12.14a3.73,3.73,0,0,1-3.69-4.24L23.36,349.53A3.73,3.73,0,0,1,27,346.32H40.51V276.11a3.75,3.75,0,0,1,1.35-2.87,3.79,3.79,0,0,1,3.07-.8l2.51.48h2.81c2.23-9.06,13.78-15.77,28.16-15.77s25.93,6.71,28.16,15.77h6a3.73,3.73,0,0,1,3.72,3.72v69.68h13.47a3.72,3.72,0,0,1,3.69,3.21Zm-7.87-2.37-13.86-99.41h-12a3.61,3.61,0,0,1-1.93.63H44.24a3.64,3.64,0,0,1-1.94-.63h-12L16.43,453.18ZM108.86,346.94v-.39L48,335.12v11.82Zm0-8v-10L48,317.48v10Zm0-18.17V310.73L48,299.31v10.05Zm0-18.71V292L48,280.6v10.06Zm0-17.63v-4.08H87.16ZM58.33,272.92H98.5c-2.57-4.38-10.06-8.31-20.09-8.31S60.9,268.54,58.33,272.92Z"/><path class="cls-1" d="M126.54,353.77l13.86,99.41h-124l13.86-99.41h12a3.64,3.64,0,0,0,1.94.63h68.35a3.61,3.61,0,0,0,1.93-.63Z"/><polygon class="cls-1" points="108.86 346.55 108.86 346.94 47.97 346.94 47.97 335.12 108.86 346.55"/><polygon class="cls-1" points="108.86 328.91 108.86 338.96 47.97 327.53 47.97 317.48 108.86 328.91"/><polygon class="cls-1" points="108.86 310.73 108.86 320.79 47.97 309.36 47.97 299.31 108.86 310.73"/><polygon class="cls-1" points="108.86 292.03 108.86 302.08 47.97 290.66 47.97 280.6 108.86 292.03"/><polygon class="cls-1" points="108.86 280.37 108.86 284.45 87.16 280.37 108.86 280.37"/><path class="cls-1" d="M98.5,272.92H58.33c2.57-4.38,10.06-8.31,20.08-8.31S95.93,268.54,98.5,272.92Z"/><path class="cls-2" d="M148.23,524.61a11.12,11.12,0,0,1,.52,8.54L8.08,484.41a11.21,11.21,0,0,1,14.23-6.91l119.54,41.42A11.1,11.1,0,0,1,148.23,524.61Z"/><path class="cls-3" d="M148.23,578a11.12,11.12,0,0,1,.52,8.54L8.08,537.84a11.22,11.22,0,0,1,10.6-7.51,10.94,10.94,0,0,1,3.63.61l119.54,41.41A11.1,11.1,0,0,1,148.23,578Z"/><path class="cls-4" d="M148.23,609.73a11.12,11.12,0,0,1,.52,8.54L8.08,569.53a11.21,11.21,0,0,1,14.23-6.91L141.85,604A11.1,11.1,0,0,1,148.23,609.73Z"/><path class="cls-5" d="M8.08,484.41l140.67,48.74a11.38,11.38,0,0,1-14.23,6.9L15,498.64a11.22,11.22,0,0,1-6.9-14.23Z"/><path class="cls-6" d="M8.08,537.84l140.67,48.74a11.39,11.39,0,0,1-14.23,6.91L15,552.07a11.22,11.22,0,0,1-6.9-14.23Z"/><path class="cls-7" d="M8.08,569.53l140.67,48.74a11.38,11.38,0,0,1-14.23,6.9L15,583.76a11.22,11.22,0,0,1-6.9-14.23Z"/><polygon class="cls-8" points="119.72 542.82 119.72 556.79 91.32 546.95 91.32 532.98 119.72 542.82"/><polygon class="cls-9" points="119.72 459.63 119.72 503.36 91.32 493.52 91.32 459.63 119.72 459.63"/><polygon class="cls-10" points="65.51 524.04 65.51 538.01 37.11 528.17 37.11 514.2 65.51 524.04"/><polygon class="cls-11" points="65.51 459.63 65.51 484.58 37.11 474.74 37.11 459.63 65.51 459.63"/></g></g></svg>