<svg xmlns="http://www.w3.org/2000/svg" viewBox="0 0 176.45 831.61"><defs><style>.cls-1{fill:#fff;}</style></defs><title>light2</title><g id="Layer_2" data-name="Layer 2"><g id="_1" data-name="1"><rect x="83.73" width="9" height="527.76"/><path d="M126.13,617.62v-74a3.73,3.73,0,0,0-3.73-3.73h-6c-2.23-9.06-13.78-15.77-28.16-15.77s-25.93,6.71-28.16,15.77H57.25l-2.51-.47a3.73,3.73,0,0,0-4.42,3.66v74.54C20.59,635.72,0,674.42,0,719.15c0,62,39.58,112.46,88.23,112.46s88.23-50.45,88.23-112.46C176.45,674.42,155.86,635.72,126.13,617.62ZM57.78,602.08l60.89,11.43v.39H57.78Zm50.53-62.2H68.14c2.57-4.37,10.06-8.31,20.08-8.31S105.74,535.51,108.31,539.88ZM57.78,576.32v-10l60.89,11.42v10.05Zm0,8.12,60.89,11.43v10.05L57.78,594.5Zm0-36.88L118.67,559v10L57.78,557.62Zm60.89,3.84L97,547.34h21.7Z"/><path class="cls-1" d="M83.71,621.36h10c-1.58,56.11,13.43,77.74,21.27,85.1-20.43,13.85-42.93,5-52.68-.15C88.1,686.18,85.23,636.34,83.71,621.36Z"/><path class="cls-1" d="M117.43,621.36C147.55,636.62,169,674.65,169,719.15c0,57.9-36.23,105-80.77,105s-80.77-47.1-80.77-105c0-44.5,21.44-82.53,51.57-97.79H76.2C77.57,635,81,688.2,53.51,703.21a3.72,3.72,0,0,0-.33,6.34c.25.17,17.2,11.62,37.82,11.62a49.59,49.59,0,0,0,32.54-11.82,3.75,3.75,0,0,0-.7-6.19c-.24-.13-23.67-13.32-21.68-81.8Z"/></g></g></svg>